<mxfile host="app.diagrams.net" agent="Mozilla/5.0 (Windows NT 10.0; Win64; x64) AppleWebKit/537.36 (KHTML, like Gecko) Chrome/140.0.0.0 Safari/537.36" version="28.2.3">
  <diagram name="หน้า-1" id="VLRu4oI-s6t4QlAEk9By">
    <mxGraphModel dx="1004" dy="1060" grid="1" gridSize="10" guides="1" tooltips="1" connect="1" arrows="1" fold="1" page="1" pageScale="1" pageWidth="827" pageHeight="1169" math="0" shadow="0">
      <root>
        <mxCell id="0" />
        <mxCell id="1" parent="0" />
        <mxCell id="xvdMB4HMnUXTHO_mwniE-8" style="edgeStyle=none;curved=1;rounded=0;orthogonalLoop=1;jettySize=auto;html=1;entryX=0.5;entryY=0;entryDx=0;entryDy=0;fontSize=12;startSize=8;endSize=8;" parent="1" source="xvdMB4HMnUXTHO_mwniE-1" target="xvdMB4HMnUXTHO_mwniE-2" edge="1">
          <mxGeometry relative="1" as="geometry" />
        </mxCell>
        <mxCell id="xvdMB4HMnUXTHO_mwniE-1" value="Start" style="ellipse;whiteSpace=wrap;html=1;" parent="1" vertex="1">
          <mxGeometry x="380" width="120" height="40" as="geometry" />
        </mxCell>
        <mxCell id="xvdMB4HMnUXTHO_mwniE-9" style="edgeStyle=none;curved=1;rounded=0;orthogonalLoop=1;jettySize=auto;html=1;entryX=0.5;entryY=0;entryDx=0;entryDy=0;fontSize=12;startSize=8;endSize=8;" parent="1" source="xvdMB4HMnUXTHO_mwniE-2" target="xvdMB4HMnUXTHO_mwniE-3" edge="1">
          <mxGeometry relative="1" as="geometry" />
        </mxCell>
        <mxCell id="xvdMB4HMnUXTHO_mwniE-2" value="word[100]" style="rounded=0;whiteSpace=wrap;html=1;" parent="1" vertex="1">
          <mxGeometry x="380" y="80" width="120" height="40" as="geometry" />
        </mxCell>
        <mxCell id="xvdMB4HMnUXTHO_mwniE-11" style="edgeStyle=none;curved=1;rounded=0;orthogonalLoop=1;jettySize=auto;html=1;entryX=0.5;entryY=0;entryDx=0;entryDy=0;fontSize=12;startSize=8;endSize=8;" parent="1" source="xvdMB4HMnUXTHO_mwniE-3" target="xvdMB4HMnUXTHO_mwniE-4" edge="1">
          <mxGeometry relative="1" as="geometry" />
        </mxCell>
        <mxCell id="xvdMB4HMnUXTHO_mwniE-3" value="j = 0" style="rounded=0;whiteSpace=wrap;html=1;" parent="1" vertex="1">
          <mxGeometry x="380" y="160" width="120" height="40" as="geometry" />
        </mxCell>
        <mxCell id="xvdMB4HMnUXTHO_mwniE-12" style="edgeStyle=none;curved=1;rounded=0;orthogonalLoop=1;jettySize=auto;html=1;entryX=0.5;entryY=0;entryDx=0;entryDy=0;fontSize=12;startSize=8;endSize=8;" parent="1" source="xvdMB4HMnUXTHO_mwniE-4" target="xvdMB4HMnUXTHO_mwniE-5" edge="1">
          <mxGeometry relative="1" as="geometry" />
        </mxCell>
        <mxCell id="xvdMB4HMnUXTHO_mwniE-4" value="Palin = 1" style="rounded=0;whiteSpace=wrap;html=1;" parent="1" vertex="1">
          <mxGeometry x="380" y="240" width="120" height="40" as="geometry" />
        </mxCell>
        <mxCell id="xvdMB4HMnUXTHO_mwniE-14" style="edgeStyle=none;curved=1;rounded=0;orthogonalLoop=1;jettySize=auto;html=1;entryX=0.5;entryY=0;entryDx=0;entryDy=0;fontSize=12;startSize=8;endSize=8;" parent="1" source="xvdMB4HMnUXTHO_mwniE-5" target="xvdMB4HMnUXTHO_mwniE-13" edge="1">
          <mxGeometry relative="1" as="geometry" />
        </mxCell>
        <mxCell id="xvdMB4HMnUXTHO_mwniE-5" value="show &quot;Enter word &quot;" style="shape=parallelogram;perimeter=parallelogramPerimeter;whiteSpace=wrap;html=1;fixedSize=1;" parent="1" vertex="1">
          <mxGeometry x="355" y="320" width="170" height="40" as="geometry" />
        </mxCell>
        <mxCell id="xvdMB4HMnUXTHO_mwniE-16" style="edgeStyle=none;curved=1;rounded=0;orthogonalLoop=1;jettySize=auto;html=1;entryX=0.5;entryY=0;entryDx=0;entryDy=0;fontSize=12;startSize=8;endSize=8;" parent="1" source="xvdMB4HMnUXTHO_mwniE-13" target="xvdMB4HMnUXTHO_mwniE-15" edge="1">
          <mxGeometry relative="1" as="geometry" />
        </mxCell>
        <mxCell id="xvdMB4HMnUXTHO_mwniE-13" value="j =&amp;nbsp;ความยาวของ word -1&amp;nbsp;" style="rounded=0;whiteSpace=wrap;html=1;" parent="1" vertex="1">
          <mxGeometry x="360" y="400" width="160" height="40" as="geometry" />
        </mxCell>
        <mxCell id="xvdMB4HMnUXTHO_mwniE-20" style="edgeStyle=none;curved=1;rounded=0;orthogonalLoop=1;jettySize=auto;html=1;entryX=0.5;entryY=0;entryDx=0;entryDy=0;fontSize=12;startSize=8;endSize=8;" parent="1" source="xvdMB4HMnUXTHO_mwniE-15" target="xvdMB4HMnUXTHO_mwniE-18" edge="1">
          <mxGeometry relative="1" as="geometry" />
        </mxCell>
        <mxCell id="xvdMB4HMnUXTHO_mwniE-15" value="i = 0" style="rounded=0;whiteSpace=wrap;html=1;" parent="1" vertex="1">
          <mxGeometry x="380" y="480" width="120" height="40" as="geometry" />
        </mxCell>
        <mxCell id="xvdMB4HMnUXTHO_mwniE-25" style="edgeStyle=none;curved=1;rounded=0;orthogonalLoop=1;jettySize=auto;html=1;entryX=0.5;entryY=0;entryDx=0;entryDy=0;fontSize=12;startSize=8;endSize=8;" parent="1" source="xvdMB4HMnUXTHO_mwniE-17" target="xvdMB4HMnUXTHO_mwniE-24" edge="1">
          <mxGeometry relative="1" as="geometry" />
        </mxCell>
        <mxCell id="kwH3tyayYN6NNazNXDwN-8" style="edgeStyle=orthogonalEdgeStyle;rounded=0;orthogonalLoop=1;jettySize=auto;html=1;entryX=0.5;entryY=0;entryDx=0;entryDy=0;" edge="1" parent="1" source="xvdMB4HMnUXTHO_mwniE-17" target="kwH3tyayYN6NNazNXDwN-9">
          <mxGeometry relative="1" as="geometry">
            <mxPoint x="680" y="1300" as="targetPoint" />
          </mxGeometry>
        </mxCell>
        <mxCell id="xvdMB4HMnUXTHO_mwniE-17" value="i &amp;lt; j ?" style="rhombus;whiteSpace=wrap;html=1;" parent="1" vertex="1">
          <mxGeometry x="375" y="600" width="130" height="80" as="geometry" />
        </mxCell>
        <mxCell id="xvdMB4HMnUXTHO_mwniE-21" value="" style="edgeStyle=none;curved=1;rounded=0;orthogonalLoop=1;jettySize=auto;html=1;fontSize=12;startSize=8;endSize=8;" parent="1" source="xvdMB4HMnUXTHO_mwniE-18" target="xvdMB4HMnUXTHO_mwniE-17" edge="1">
          <mxGeometry relative="1" as="geometry" />
        </mxCell>
        <mxCell id="xvdMB4HMnUXTHO_mwniE-18" value="" style="ellipse;whiteSpace=wrap;html=1;aspect=fixed;" parent="1" vertex="1">
          <mxGeometry x="435" y="550" width="10" height="10" as="geometry" />
        </mxCell>
        <mxCell id="xvdMB4HMnUXTHO_mwniE-30" style="edgeStyle=none;curved=1;rounded=0;orthogonalLoop=1;jettySize=auto;html=1;entryX=0.5;entryY=0;entryDx=0;entryDy=0;fontSize=12;startSize=8;endSize=8;" parent="1" source="xvdMB4HMnUXTHO_mwniE-24" target="xvdMB4HMnUXTHO_mwniE-26" edge="1">
          <mxGeometry relative="1" as="geometry" />
        </mxCell>
        <mxCell id="xvdMB4HMnUXTHO_mwniE-24" value="left = word[ i ]" style="rounded=0;whiteSpace=wrap;html=1;" parent="1" vertex="1">
          <mxGeometry x="380" y="720" width="120" height="40" as="geometry" />
        </mxCell>
        <mxCell id="xvdMB4HMnUXTHO_mwniE-31" style="edgeStyle=none;curved=1;rounded=0;orthogonalLoop=1;jettySize=auto;html=1;entryX=0.5;entryY=0;entryDx=0;entryDy=0;fontSize=12;startSize=8;endSize=8;" parent="1" source="xvdMB4HMnUXTHO_mwniE-26" target="xvdMB4HMnUXTHO_mwniE-28" edge="1">
          <mxGeometry relative="1" as="geometry" />
        </mxCell>
        <mxCell id="xvdMB4HMnUXTHO_mwniE-26" value="right&amp;nbsp; = word[ j ]" style="rounded=0;whiteSpace=wrap;html=1;" parent="1" vertex="1">
          <mxGeometry x="380" y="800" width="120" height="40" as="geometry" />
        </mxCell>
        <mxCell id="xvdMB4HMnUXTHO_mwniE-34" style="edgeStyle=none;curved=1;rounded=0;orthogonalLoop=1;jettySize=auto;html=1;entryX=0.5;entryY=0;entryDx=0;entryDy=0;fontSize=12;startSize=8;endSize=8;" parent="1" source="xvdMB4HMnUXTHO_mwniE-28" target="xvdMB4HMnUXTHO_mwniE-33" edge="1">
          <mxGeometry relative="1" as="geometry" />
        </mxCell>
        <mxCell id="kwH3tyayYN6NNazNXDwN-15" style="edgeStyle=orthogonalEdgeStyle;rounded=0;orthogonalLoop=1;jettySize=auto;html=1;entryX=1;entryY=0.5;entryDx=0;entryDy=0;" edge="1" parent="1" source="xvdMB4HMnUXTHO_mwniE-28" target="kwH3tyayYN6NNazNXDwN-11">
          <mxGeometry relative="1" as="geometry">
            <Array as="points">
              <mxPoint x="600" y="920" />
              <mxPoint x="600" y="1075" />
            </Array>
          </mxGeometry>
        </mxCell>
        <mxCell id="xvdMB4HMnUXTHO_mwniE-28" value="left &amp;gt;= A &amp;amp;&amp;amp; left =&amp;lt; Z ?" style="rhombus;whiteSpace=wrap;html=1;" parent="1" vertex="1">
          <mxGeometry x="352.5" y="880" width="175" height="80" as="geometry" />
        </mxCell>
        <mxCell id="kwH3tyayYN6NNazNXDwN-13" style="edgeStyle=orthogonalEdgeStyle;rounded=0;orthogonalLoop=1;jettySize=auto;html=1;entryX=0.5;entryY=0;entryDx=0;entryDy=0;" edge="1" parent="1" source="xvdMB4HMnUXTHO_mwniE-33" target="kwH3tyayYN6NNazNXDwN-11">
          <mxGeometry relative="1" as="geometry" />
        </mxCell>
        <mxCell id="xvdMB4HMnUXTHO_mwniE-33" value="left += 32" style="rounded=0;whiteSpace=wrap;html=1;" parent="1" vertex="1">
          <mxGeometry x="380" y="1000" width="120" height="40" as="geometry" />
        </mxCell>
        <mxCell id="xvdMB4HMnUXTHO_mwniE-38" style="edgeStyle=none;curved=1;rounded=0;orthogonalLoop=1;jettySize=auto;html=1;entryX=0.5;entryY=0;entryDx=0;entryDy=0;fontSize=12;startSize=8;endSize=8;" parent="1" source="xvdMB4HMnUXTHO_mwniE-35" target="xvdMB4HMnUXTHO_mwniE-36" edge="1">
          <mxGeometry relative="1" as="geometry" />
        </mxCell>
        <mxCell id="kwH3tyayYN6NNazNXDwN-19" style="edgeStyle=orthogonalEdgeStyle;rounded=0;orthogonalLoop=1;jettySize=auto;html=1;entryX=1;entryY=0.5;entryDx=0;entryDy=0;" edge="1" parent="1" source="xvdMB4HMnUXTHO_mwniE-35" target="kwH3tyayYN6NNazNXDwN-16">
          <mxGeometry relative="1" as="geometry">
            <Array as="points">
              <mxPoint x="600" y="1160" />
              <mxPoint x="600" y="1315" />
            </Array>
          </mxGeometry>
        </mxCell>
        <mxCell id="xvdMB4HMnUXTHO_mwniE-35" value="right &amp;gt;= A &amp;amp;&amp;amp; right =&amp;lt; Z ?" style="rhombus;whiteSpace=wrap;html=1;" parent="1" vertex="1">
          <mxGeometry x="352.5" y="1120" width="175" height="80" as="geometry" />
        </mxCell>
        <mxCell id="kwH3tyayYN6NNazNXDwN-17" style="edgeStyle=orthogonalEdgeStyle;rounded=0;orthogonalLoop=1;jettySize=auto;html=1;entryX=0.5;entryY=0;entryDx=0;entryDy=0;" edge="1" parent="1" source="xvdMB4HMnUXTHO_mwniE-36" target="kwH3tyayYN6NNazNXDwN-16">
          <mxGeometry relative="1" as="geometry" />
        </mxCell>
        <mxCell id="xvdMB4HMnUXTHO_mwniE-36" value="right += 32" style="rounded=0;whiteSpace=wrap;html=1;" parent="1" vertex="1">
          <mxGeometry x="380" y="1240" width="120" height="40" as="geometry" />
        </mxCell>
        <mxCell id="xvdMB4HMnUXTHO_mwniE-42" style="edgeStyle=none;curved=1;rounded=0;orthogonalLoop=1;jettySize=auto;html=1;fontSize=12;startSize=8;endSize=8;" parent="1" source="xvdMB4HMnUXTHO_mwniE-40" target="xvdMB4HMnUXTHO_mwniE-41" edge="1">
          <mxGeometry relative="1" as="geometry" />
        </mxCell>
        <mxCell id="kwH3tyayYN6NNazNXDwN-20" style="edgeStyle=orthogonalEdgeStyle;rounded=0;orthogonalLoop=1;jettySize=auto;html=1;entryX=0;entryY=0.5;entryDx=0;entryDy=0;" edge="1" parent="1" source="xvdMB4HMnUXTHO_mwniE-40" target="kwH3tyayYN6NNazNXDwN-9">
          <mxGeometry relative="1" as="geometry">
            <mxPoint x="610" y="1400" as="targetPoint" />
          </mxGeometry>
        </mxCell>
        <mxCell id="xvdMB4HMnUXTHO_mwniE-40" value="left ไม่เท่ากับ right ?" style="rhombus;whiteSpace=wrap;html=1;" parent="1" vertex="1">
          <mxGeometry x="375" y="1360" width="130" height="80" as="geometry" />
        </mxCell>
        <mxCell id="xvdMB4HMnUXTHO_mwniE-46" style="edgeStyle=none;curved=1;rounded=0;orthogonalLoop=1;jettySize=auto;html=1;entryX=0.5;entryY=0;entryDx=0;entryDy=0;fontSize=12;startSize=8;endSize=8;" parent="1" source="xvdMB4HMnUXTHO_mwniE-41" target="xvdMB4HMnUXTHO_mwniE-44" edge="1">
          <mxGeometry relative="1" as="geometry" />
        </mxCell>
        <mxCell id="xvdMB4HMnUXTHO_mwniE-41" value="Palin = 0" style="rounded=0;whiteSpace=wrap;html=1;" parent="1" vertex="1">
          <mxGeometry x="380" y="1480" width="120" height="40" as="geometry" />
        </mxCell>
        <mxCell id="xvdMB4HMnUXTHO_mwniE-47" style="edgeStyle=none;curved=1;rounded=0;orthogonalLoop=1;jettySize=auto;html=1;entryX=0.5;entryY=0;entryDx=0;entryDy=0;fontSize=12;startSize=8;endSize=8;" parent="1" source="xvdMB4HMnUXTHO_mwniE-44" target="xvdMB4HMnUXTHO_mwniE-45" edge="1">
          <mxGeometry relative="1" as="geometry" />
        </mxCell>
        <mxCell id="xvdMB4HMnUXTHO_mwniE-44" value="i + 1" style="rounded=0;whiteSpace=wrap;html=1;" parent="1" vertex="1">
          <mxGeometry x="380" y="1560" width="120" height="40" as="geometry" />
        </mxCell>
        <mxCell id="kwH3tyayYN6NNazNXDwN-1" style="edgeStyle=orthogonalEdgeStyle;rounded=0;orthogonalLoop=1;jettySize=auto;html=1;entryX=0;entryY=0.5;entryDx=0;entryDy=0;" edge="1" parent="1" source="xvdMB4HMnUXTHO_mwniE-45" target="xvdMB4HMnUXTHO_mwniE-18">
          <mxGeometry relative="1" as="geometry">
            <Array as="points">
              <mxPoint x="440" y="1720" />
              <mxPoint x="280" y="1720" />
              <mxPoint x="280" y="555" />
            </Array>
          </mxGeometry>
        </mxCell>
        <mxCell id="xvdMB4HMnUXTHO_mwniE-45" value="j - 1" style="rounded=0;whiteSpace=wrap;html=1;" parent="1" vertex="1">
          <mxGeometry x="380" y="1640" width="120" height="40" as="geometry" />
        </mxCell>
        <mxCell id="kwH3tyayYN6NNazNXDwN-6" style="edgeStyle=orthogonalEdgeStyle;rounded=0;orthogonalLoop=1;jettySize=auto;html=1;" edge="1" parent="1" source="kwH3tyayYN6NNazNXDwN-3" target="kwH3tyayYN6NNazNXDwN-5">
          <mxGeometry relative="1" as="geometry" />
        </mxCell>
        <mxCell id="kwH3tyayYN6NNazNXDwN-24" value="" style="edgeStyle=orthogonalEdgeStyle;rounded=0;orthogonalLoop=1;jettySize=auto;html=1;" edge="1" parent="1" source="kwH3tyayYN6NNazNXDwN-3" target="kwH3tyayYN6NNazNXDwN-4">
          <mxGeometry relative="1" as="geometry" />
        </mxCell>
        <mxCell id="kwH3tyayYN6NNazNXDwN-3" value="Palin = 1 ?" style="rhombus;whiteSpace=wrap;html=1;" vertex="1" parent="1">
          <mxGeometry x="375" y="1800" width="130" height="80" as="geometry" />
        </mxCell>
        <mxCell id="kwH3tyayYN6NNazNXDwN-4" value="show &quot;Pass &quot;" style="shape=parallelogram;perimeter=parallelogramPerimeter;whiteSpace=wrap;html=1;fixedSize=1;" vertex="1" parent="1">
          <mxGeometry x="355" y="1920" width="170" height="40" as="geometry" />
        </mxCell>
        <mxCell id="kwH3tyayYN6NNazNXDwN-30" style="edgeStyle=orthogonalEdgeStyle;rounded=0;orthogonalLoop=1;jettySize=auto;html=1;entryX=1;entryY=0.5;entryDx=0;entryDy=0;" edge="1" parent="1" source="kwH3tyayYN6NNazNXDwN-5" target="kwH3tyayYN6NNazNXDwN-26">
          <mxGeometry relative="1" as="geometry">
            <Array as="points">
              <mxPoint x="680" y="1995" />
            </Array>
          </mxGeometry>
        </mxCell>
        <mxCell id="kwH3tyayYN6NNazNXDwN-5" value="show &quot;Not pass &quot;" style="shape=parallelogram;perimeter=parallelogramPerimeter;whiteSpace=wrap;html=1;fixedSize=1;" vertex="1" parent="1">
          <mxGeometry x="600" y="1920" width="160" height="40" as="geometry" />
        </mxCell>
        <mxCell id="kwH3tyayYN6NNazNXDwN-23" style="edgeStyle=orthogonalEdgeStyle;rounded=0;orthogonalLoop=1;jettySize=auto;html=1;entryX=0.5;entryY=0;entryDx=0;entryDy=0;" edge="1" parent="1" source="kwH3tyayYN6NNazNXDwN-9" target="kwH3tyayYN6NNazNXDwN-3">
          <mxGeometry relative="1" as="geometry">
            <Array as="points">
              <mxPoint x="680" y="1760" />
              <mxPoint x="440" y="1760" />
            </Array>
          </mxGeometry>
        </mxCell>
        <mxCell id="kwH3tyayYN6NNazNXDwN-9" value="" style="ellipse;whiteSpace=wrap;html=1;aspect=fixed;" vertex="1" parent="1">
          <mxGeometry x="675" y="1395" width="10" height="10" as="geometry" />
        </mxCell>
        <mxCell id="kwH3tyayYN6NNazNXDwN-14" style="edgeStyle=orthogonalEdgeStyle;rounded=0;orthogonalLoop=1;jettySize=auto;html=1;entryX=0.5;entryY=0;entryDx=0;entryDy=0;" edge="1" parent="1" source="kwH3tyayYN6NNazNXDwN-11" target="xvdMB4HMnUXTHO_mwniE-35">
          <mxGeometry relative="1" as="geometry" />
        </mxCell>
        <mxCell id="kwH3tyayYN6NNazNXDwN-11" value="" style="ellipse;whiteSpace=wrap;html=1;aspect=fixed;" vertex="1" parent="1">
          <mxGeometry x="435" y="1070" width="10" height="10" as="geometry" />
        </mxCell>
        <mxCell id="kwH3tyayYN6NNazNXDwN-18" style="edgeStyle=orthogonalEdgeStyle;rounded=0;orthogonalLoop=1;jettySize=auto;html=1;entryX=0.5;entryY=0;entryDx=0;entryDy=0;" edge="1" parent="1" source="kwH3tyayYN6NNazNXDwN-16" target="xvdMB4HMnUXTHO_mwniE-40">
          <mxGeometry relative="1" as="geometry" />
        </mxCell>
        <mxCell id="kwH3tyayYN6NNazNXDwN-16" value="" style="ellipse;whiteSpace=wrap;html=1;aspect=fixed;" vertex="1" parent="1">
          <mxGeometry x="435" y="1310" width="10" height="10" as="geometry" />
        </mxCell>
        <mxCell id="kwH3tyayYN6NNazNXDwN-25" value="END" style="ellipse;whiteSpace=wrap;html=1;" vertex="1" parent="1">
          <mxGeometry x="380" y="2040" width="120" height="40" as="geometry" />
        </mxCell>
        <mxCell id="kwH3tyayYN6NNazNXDwN-29" style="edgeStyle=orthogonalEdgeStyle;rounded=0;orthogonalLoop=1;jettySize=auto;html=1;entryX=0.5;entryY=0;entryDx=0;entryDy=0;" edge="1" parent="1" source="kwH3tyayYN6NNazNXDwN-26" target="kwH3tyayYN6NNazNXDwN-25">
          <mxGeometry relative="1" as="geometry" />
        </mxCell>
        <mxCell id="kwH3tyayYN6NNazNXDwN-26" value="" style="ellipse;whiteSpace=wrap;html=1;aspect=fixed;" vertex="1" parent="1">
          <mxGeometry x="435" y="1990" width="10" height="10" as="geometry" />
        </mxCell>
        <mxCell id="kwH3tyayYN6NNazNXDwN-28" style="edgeStyle=orthogonalEdgeStyle;rounded=0;orthogonalLoop=1;jettySize=auto;html=1;entryX=0.5;entryY=0;entryDx=0;entryDy=0;" edge="1" parent="1" source="kwH3tyayYN6NNazNXDwN-4" target="kwH3tyayYN6NNazNXDwN-26">
          <mxGeometry relative="1" as="geometry" />
        </mxCell>
        <mxCell id="kwH3tyayYN6NNazNXDwN-31" value="TRUE" style="text;html=1;align=center;verticalAlign=middle;whiteSpace=wrap;rounded=0;" vertex="1" parent="1">
          <mxGeometry x="440" y="680" width="60" height="30" as="geometry" />
        </mxCell>
        <mxCell id="kwH3tyayYN6NNazNXDwN-32" value="FALSE" style="text;html=1;align=center;verticalAlign=middle;whiteSpace=wrap;rounded=0;" vertex="1" parent="1">
          <mxGeometry x="505" y="610" width="60" height="30" as="geometry" />
        </mxCell>
        <mxCell id="kwH3tyayYN6NNazNXDwN-33" value="TRUE" style="text;html=1;align=center;verticalAlign=middle;whiteSpace=wrap;rounded=0;" vertex="1" parent="1">
          <mxGeometry x="440" y="960" width="60" height="30" as="geometry" />
        </mxCell>
        <mxCell id="kwH3tyayYN6NNazNXDwN-34" value="FALSE" style="text;html=1;align=center;verticalAlign=middle;whiteSpace=wrap;rounded=0;" vertex="1" parent="1">
          <mxGeometry x="527.5" y="890" width="60" height="30" as="geometry" />
        </mxCell>
        <mxCell id="kwH3tyayYN6NNazNXDwN-35" value="TRUE" style="text;html=1;align=center;verticalAlign=middle;whiteSpace=wrap;rounded=0;" vertex="1" parent="1">
          <mxGeometry x="440" y="1200" width="60" height="30" as="geometry" />
        </mxCell>
        <mxCell id="kwH3tyayYN6NNazNXDwN-36" value="FALSE" style="text;html=1;align=center;verticalAlign=middle;whiteSpace=wrap;rounded=0;" vertex="1" parent="1">
          <mxGeometry x="527.5" y="1130" width="60" height="30" as="geometry" />
        </mxCell>
        <mxCell id="kwH3tyayYN6NNazNXDwN-37" value="TRUE" style="text;html=1;align=center;verticalAlign=middle;whiteSpace=wrap;rounded=0;" vertex="1" parent="1">
          <mxGeometry x="440" y="1440" width="60" height="30" as="geometry" />
        </mxCell>
        <mxCell id="kwH3tyayYN6NNazNXDwN-38" value="FALSE" style="text;html=1;align=center;verticalAlign=middle;whiteSpace=wrap;rounded=0;" vertex="1" parent="1">
          <mxGeometry x="505" y="1370" width="60" height="30" as="geometry" />
        </mxCell>
        <mxCell id="kwH3tyayYN6NNazNXDwN-39" value="TRUE" style="text;html=1;align=center;verticalAlign=middle;whiteSpace=wrap;rounded=0;" vertex="1" parent="1">
          <mxGeometry x="440" y="1880" width="60" height="30" as="geometry" />
        </mxCell>
        <mxCell id="kwH3tyayYN6NNazNXDwN-40" value="FALSE" style="text;html=1;align=center;verticalAlign=middle;whiteSpace=wrap;rounded=0;" vertex="1" parent="1">
          <mxGeometry x="505" y="1810" width="60" height="30" as="geometry" />
        </mxCell>
      </root>
    </mxGraphModel>
  </diagram>
</mxfile>
